<svg id="Layer_1" data-name="Layer 1" xmlns="http://www.w3.org/2000/svg" viewBox="0 0 500 500"><defs><style>.cls-1{fill:#7e5bb5;}.cls-2{fill:#721acf;}.cls-3{fill:#3ac38f;}.cls-4{fill:#3ac390;}</style></defs><title>MysteryRoom</title><rect class="cls-1" x="-11" y="-18" width="529" height="536"/><path class="cls-2" d="M201.66,352.14q0-32.64,0-65.27a23.8,23.8,0,0,1,0-3.41c.76-5.17-1.35-8.56-5.86-11.16a111.09,111.09,0,0,1-43.25-45.07c-29.6-55.56,0-127.8,60-148.92a114,114,0,0,1,25.37-6c2.43-.27,4.83-1,5.38,2.73.65,4.39-.4,7.08-3.89,7.82-5.55,1.18-11.19,1.93-16.64,3.6-39.33,12.08-62.08,38.86-69.91,78.84-.48,2.46-.57,5-.81,7.5-.2,2.17.94,3.24,3,3.67a32,32,0,0,0,9.06.49c3.57-.27,4.37-2.9,4.68-5.86a78.88,78.88,0,0,1,12.08-35.13c18.12-28.17,54-43.12,86.73-36.08,33.39,7.18,59.35,34.35,64.08,67.86,5.49,38.81-17.64,79.87-63,90.51-1,.23-2,.47-2.93.75-2.16.64-4.45,1.86-5.8-1.22s-.49-7.1,2.09-8.41a23.86,23.86,0,0,1,5.38-1.71,70.63,70.63,0,0,0,54.53-68.09c.29-33.45-24.66-63.44-57.67-69.31-41.07-7.31-77.2,17.8-84.67,58.86-5,27.33,9.49,56.63,35.17,71.21a67.57,67.57,0,0,0,23.77,8.44c4.08.59,6.22,4,5.08,7.94-1,3.37-3.79,2.95-6.25,2.63a70.85,70.85,0,0,1-24.42-7.76c-23.54-12.54-37.95-32-43.42-58-1.46-6.93-10.18-10.28-16.07-6.08a3,3,0,0,0-1.29,3.3c3.42,15.91,8.17,31.31,18,44.59,22.12,29.81,51.82,43.2,88.77,40.61a106.81,106.81,0,0,0,11.64-1.53c3-.55,4.21,0,4.15,3.46-.28,18.33-.31,36.67-.39,55,0,8.16,1.73,9.63,9.9,9.07,4.15-.28,8.34-.1,12.51,0,3.07,0,4.12,1.94,4.15,4.74s-.49,5.2-3.89,5.36a58.69,58.69,0,0,1-9.09,0c-5.33-.59-10.61,0-15.9.15-6.23.15-7.56-1-7.54-7.35,0-16.82.14-33.64.19-50.46,0-7.19-1.38-8.27-8.6-7.49-12.92,1.41-25.43-.72-37.71-4.64-5.78-1.85-6.73-.9-6.65,5.25.14,10.75.07,21.5,0,32.25,0,5.15,1.49,6.71,6.42,6.45,3.1-.16,4.61-1.72,4.75-4.73.18-3.78.24-7.58.54-11.35.41-5.22,2.45-7.46,7.55-7.68,6.57-.29,13.15-.19,19.73-.2,3.42,0,3.65,2.46,3.68,5s-.59,4.79-3.89,4.85c-4,.07-8.08-.14-12.1.59-3.41.61-5,2.57-5.24,5.93a123.72,123.72,0,0,0,0,17.05c.32,4.26,1.85,5.79,6.23,6.07a88.34,88.34,0,0,0,10.61,0c3.52-.2,4.82,1.57,4.88,4.72.08,4.08-1.29,5.74-4.8,5.76-6.7,0-13.39.08-20.09,0-6.17,0-7.71-1.68-7.34-7.69,0-.5,0-1,.12-1.51,1.12-7.17-2.24-7.33-8.63-6.45-2.39.33-2.26,2.67-2.26,4.61q0,19.92,0,39.85,0,15.55-.17,31.11c0,4.61,1,5.62,5.86,5.62q38.51,0,77,0c5.46,0,6.81,1.49,6.36,6.4-.21,2.29-1.35,3.3-3.57,3.61-3.3.45-6.56-.16-9.84-.16q-33.58,0-67.16,0c-4.55,0-9.1.34-13.64.26s-5.07-1.12-5.06-5.57q.07-35.1,0-70.2Z"/><path class="cls-3" d="M196.57,178.06c.71-21.77,11.32-37.86,31.41-46.87,21.1-9.47,41-6,58.67,8.86,9.29,7.79,14.08,18.27,17,29.78a2,2,0,0,1-.63,2.36,6.67,6.67,0,0,1-10.36-3.54c-4.28-15.83-14.61-26.06-29.94-31-23-7.36-49.06,7.68-55,31.25s9.93,48.27,33.93,52.87a44.22,44.22,0,0,0,48.48-24.23,30.81,30.81,0,0,0,1.58-4.24,6.57,6.57,0,0,1,8.71-4.13c2.22.88,2.63,2.49,1.91,4.6-7.05,20.79-21.07,34.17-42.84,37.76-31.25,5.16-57.28-14.18-62.33-45.42C196.74,183.66,196.77,181.11,196.57,178.06Z"/><path class="cls-3" d="M290.91,303.9c.82-9.4-1-19.22-.12-29.1.53-5.89,3.22-9.88,8.44-12.48C327.56,248.19,341.76,224,347.69,194c.76-3.87,2.94-5.74,6.78-5.24,3,.4,4.37,2.73,3.73,6.66-5.25,31.84-21.23,56.73-48.61,73.91-6.43,4-9.23,8.88-8.93,16.47.48,11.87.21,23.78.21,35.67,0,4.36-1.2,5.74-4.7,5.77-3.75,0-5.24-1.57-5.26-5.78C290.89,315.73,290.91,310,290.91,303.9Z"/><path class="cls-3" d="M354.29,172.82c-5.26-.21-5.63-.54-6.33-5.77a97.73,97.73,0,0,0-78.71-83.15c-1.24-.23-2.51-.29-3.76-.49-5.67-.91-6.05-1.68-5.9-7.41.09-3.39,1.54-4,4.5-3.73,45.71,4.8,86.18,42.86,93.64,88.14.41,2.49.84,5,1.14,7.49C359.37,172.14,358.54,173,354.29,172.82Z"/><path class="cls-4" d="M264.46,384.5q0-8.9,0-17.81c0-4.07,1.1-5.29,5.06-5.31,8.84,0,17.68.07,26.52-.05,3.61-.05,4.92,1.44,4.91,5s-1.46,5-5,5c-5.56-.12-11.12.09-16.68-.07-3.48-.1-4.86,1.67-4.91,4.78s1.91,3.94,4.76,3.87c5.68-.13,11.37,0,17.06-.07,3.67-.07,4.81,1.69,4.76,5.15s-1.4,4.85-4.77,4.77c-5.43-.13-10.86,0-16.29-.18-3.44-.14-5.35,1.19-5.5,4.63s2.12,4.5,5.18,4.41c5.3-.16,10.6.25,15.9-.28,3.95-.4,5.32.86,5.41,4.39.12,4.56-1,5.69-5.38,5.67q-12.5-.05-25,0c-4.68,0-6.09-1.39-6-6.08C264.51,396.37,264.47,390.43,264.46,384.5Z"/><path class="cls-4" d="M253.82,384.76c0,6.06-.08,12.13,0,18.19.06,3.5-1.28,5.07-4.92,5-7.32-.15-14.66-.1-22,0-3,0-4.39-1.19-4.38-4.27.05-12.51.08-25,0-37.53,0-3.67,1.71-4.75,5.14-4.84s5.28,1.17,5.22,4.71c-.15,8.21.38,16.42-.31,24.62-.54,6.44.69,7.72,6.49,7.62,3.46-.06,4.7-1.72,4.65-5-.13-8.7-.16-17.4-.28-26.09-.06-4.38,1.38-6.08,5.34-6.06s5,1.32,5,5.81C253.84,372.88,253.82,378.82,253.82,384.76Z"/></svg>