<svg id="Layer_1" data-name="Layer 1" xmlns="http://www.w3.org/2000/svg" viewBox="0 0 500 500"><defs><style>.cls-1{fill:#39b7a5;}.cls-2{fill:#c6348e;}.cls-3{fill:#9840ff;}.cls-4{fill:#5ed1c3;}</style></defs><title>OC</title><rect class="cls-1" x="-11" y="-18" width="529" height="536"/><path class="cls-2" d="M139.24,101.87q-9.52,0-9.52,16.83v64.06q0,20.67-10.14,24.21,10.14,3.25,10.14,23.91v69.38q0,7.67,2.23,10.63t8.52,3v17.48h-5.22c-13.92,0-20.88-3-20.88-29V238.56q0-9.74-1.84-13.73t-5.84-4H103V193.39h3.69q4,0,5.84-4.13t1.84-14.17V113.68c0-26,7-28.48,20.88-28.48h5.22v17A2.27,2.27,0,0,0,139.24,101.87Z"/><path class="cls-3" d="M360.76,314.86q9.52,0,9.52-16.83V234q0-20.67,10.14-24.21-10.14-3.25-10.14-23.91V116.47q0-7.67-2.23-10.63t-8.52-3V85.42h5.22c13.92,0,20.88,3,20.88,29v63.77q0,9.74,1.84,13.73t5.84,4H397v27.46h-3.69q-4,0-5.84,4.13t-1.84,14.17v61.41c0,26-7,28.48-20.88,28.48h-5.22v-17A2.27,2.27,0,0,0,360.76,314.86Z"/><polygon class="cls-2" points="319.31 289.52 161.36 289.52 161.36 134.86 305.04 134.86 305.04 96.98 322.52 96.98 322.52 152.34 178.84 152.34 178.84 272.04 319.31 272.04 319.31 289.52"/><rect class="cls-2" x="140.47" y="85.2" width="181.76" height="16.38"/><rect class="cls-3" x="164.68" y="314.57" width="194.85" height="16.96"/><rect class="cls-3" x="103" y="397.49" width="294" height="16.96"/><rect class="cls-4" x="194.88" y="168.72" width="8.83" height="8.83"/><rect class="cls-4" x="209.5" y="168.72" width="113.87" height="8.83"/><rect class="cls-4" x="194.88" y="207.22" width="8.83" height="8.83"/><rect class="cls-4" x="209.5" y="207.22" width="113.87" height="8.83"/><rect class="cls-4" x="194.88" y="245.73" width="8.83" height="8.83"/><rect class="cls-4" x="209.5" y="245.73" width="113.87" height="8.83"/><rect class="cls-3" x="224.75" y="316.21" width="50.5" height="23.84"/><rect class="cls-3" x="216.82" y="383.47" width="66.37" height="31.33"/><rect class="cls-3" x="239.16" y="334.04" width="22.95" height="66.08"/></svg>