<svg id="Layer_1" data-name="Layer 1" xmlns="http://www.w3.org/2000/svg" viewBox="0 0 500 500"><defs><style>.cls-1{fill:#c7eae9;}.cls-2{fill:#fff;}.cls-3,.cls-5{fill:#42e8e0;}.cls-4{fill:none;stroke:#42e8e0;stroke-miterlimit:10;stroke-width:5px;}.cls-5{font-size:40.78px;font-family:MyriadPro-Regular, Myriad Pro;}</style></defs><title>Gambit</title><rect class="cls-1" x="-11" y="-18" width="529" height="536"/><rect class="cls-2" x="120" y="103.26" width="191.5" height="293.48" rx="12" ry="12"/><path class="cls-2" d="M393.72,148.28,320.1,358.64V112.15l67.62,23.67A9.81,9.81,0,0,1,393.72,148.28Z"/><path class="cls-2" d="M325.55,370.58l71.24-205.43,63.67,69.94a9.8,9.8,0,0,1-.64,13.82L325.91,370.81"/><path class="cls-3" d="M201.4,288.21c0-.84,0-1.64,0-2.43a.88.88,0,0,1,.35-.58c5.38-3.7,8.1-9.08,9.64-15.21.19-.74.31-1.5.47-2.33-1,.59-2,1.16-3,1.67a19.82,19.82,0,0,1-9.92,2.31c-7.93-.28-14.64-5.55-16.3-12.85a16.67,16.67,0,0,1,2.19-12.41,30.83,30.83,0,0,1,8.52-9,83.49,83.49,0,0,0,14.82-13.84,62,62,0,0,0,7.07-10.88l.45-.86a3.16,3.16,0,0,1,.29.39c4.6,9.3,11.39,16.75,19.46,23.13,2.17,1.71,4.37,3.39,6.43,5.23a23,23,0,0,1,6.4,9.33,15.8,15.8,0,0,1-4.79,17.57c-5.61,4.52-11.87,5.29-18.54,2.87a44.32,44.32,0,0,1-4.79-2.4l-.5-.26a28.57,28.57,0,0,0,2.68,8.71,22.56,22.56,0,0,0,5.72,7.57,10.23,10.23,0,0,0,1.38,1,1.23,1.23,0,0,1,.68,1.34c-.06.61,0,1.24,0,1.91Z"/><path class="cls-4" d="M253.88,366.85H148.47a9,9,0,0,1-9-9V181.07"/><path class="cls-4" d="M178.4,133.32,283,133.15a9,9,0,0,1,9,9V317.39"/><text class="cls-5" transform="translate(134.72 153.39)">A</text><text class="cls-5" transform="translate(300.34 347.56) rotate(180)">A</text><path class="cls-2" d="M244.41,250.38s-.54,11.26-13.41,18.23C231,268.62,251.91,267.54,244.41,250.38Z"/></svg>