<?xml version="1.0" encoding="utf-8"?>
<!-- Generator: Adobe Illustrator 19.0.0, SVG Export Plug-In . SVG Version: 6.00 Build 0)  -->
<svg version="1.1" xmlns="http://www.w3.org/2000/svg" xmlns:xlink="http://www.w3.org/1999/xlink" x="0px" y="0px"
	 viewBox="0 0 1600 900" style="enable-background:new 0 0 1600 900;" xml:space="preserve">
<style type="text/css">
	.st0{display:none;}
	.st1{display:inline;}
	* {
		fill: #333;
	}
</style>
<g id="Layer_1" class="st0">
	<g class="st1">
		<path d="M1035.8,375.1c-19,0-37.5,0-56.4,0c0.1-1.7,0.1-3.5,0.4-5.2c2.3-17,2.6-33.9-1.1-50.8c-4.1-18.7-12.7-35.1-25.7-49
			c-20.7-22.2-46.6-34.9-75.7-42c-22.6-5.5-45.5-6.5-68.5-4.1c-45.4,4.8-86.1,21.7-122.2,49.6c-27.3,21.1-47.8,47.3-60.1,79.8
			c-4.4,11.7-7.4,23.5-8.1,36.1c-0.9,14.2-1.1,28.2,2,42.2c3.5,15.7,10.4,29.7,20.5,42.1c22.6,27.9,52.7,42.9,87.1,50.5
			c4.7,1,9.6,1.5,15.1,2.3C753,479,763,431.9,773.1,384c-2,0-3.7,0-5.4,0c-41.4,0-82.7-0.1-124.1,0.1c-4.1,0-5.4-1.2-5-5.2
			c0.3-4.1,0.1-8.2,0.1-12.9c46.1,0,92,0,138.1,0c1.6-7.2,3.3-13.9,4.7-20.7c2.2-10.4,4.3-20.7,6.4-31.1c3.1-14.8,6.2-29.6,9.3-44.4
			c0.7-3.3,1.2-6.6,2.2-9.7c0.4-1.3,2-3.2,3-3.2c14.2-0.2,28.3-0.1,43.1-0.1c-2,9.6-3.9,18.5-5.7,27.5c-4.5,21.3-8.9,42.6-13.4,63.9
			c-1,4.9-2.2,9.7-3.4,14.6c-0.7,2.7,0,3.6,3,4c13.5,1.8,27,3.7,40.4,6.2c30.3,5.7,57.6,18.6,82.7,36.1
			c22.2,15.5,39.5,35.4,47.9,61.5c3.5,11,4.6,22.8,6,34.3c0.8,6.2,0.2,12.5-0.1,18.7c-0.1,1.4-2,3.8-3,3.8
			c-17.5,0.2-35.1,0.1-52.6,0c-0.1,0-0.2-0.2-0.9-0.7c0.2-2.3,0.4-5,0.6-7.7c2.5-36.3-7.6-68-34.6-93.3
			c-14.9-14-32.3-23.9-51.6-30.9c-12.8-4.7-25.8-7.6-39.2-9.3c-3-0.4-3.8,0.9-4.3,3.2c-6.1,28.7-12.2,57.3-18.3,86
			c-3.3,15.5-6.6,31.1-9.9,46.6c-0.4,1.9-0.5,3.9-0.8,6.3c43.9,0,87.4,0,131,0c0,6.3,0,12,0,18.3c-1.8,0-3.6,0-5.4,0
			c-41.5,0-83,0.1-124.6,0c-4,0-5.6,0.8-6.5,5.2c-3.6,18.8-7.9,37.4-11.9,56c-3.2,14.8-6.5,29.6-9.4,44.5c-0.6,3-1.7,3.7-4.5,3.6
			c-13.4-0.1-26.8,0-41.4,0c7.7-36.5,15.4-73,23.1-109.7c-9.4-1.4-18.3-2.2-27-4.2c-14.5-3.3-29.2-6.4-43.3-11.3
			c-20.8-7.3-40.2-17.5-57.7-31c-20.2-15.6-36.1-34.8-44-59.5c-5.1-15.8-6.8-32-5.3-48.6c3.5-36.7,19.6-67.6,44-94.5
			c24.9-27.4,55.8-46.4,89.1-61.7c21.7-10,44.2-17.7,67.6-22.5c15.1-3.1,30.5-5.4,45.9-6.6c15.6-1.3,31.4-2.1,47-0.9
			c19.4,1.5,38.8,3.8,57.7,9.3c25.6,7.5,49.6,18,71.2,33.5c23.7,16.9,41.5,38.4,49.5,66.9c5,18,5.9,36.2,2.6,54.6
			C1035.9,370.8,1035.9,372.5,1035.8,375.1z"/>
		<path d="M998.5,547.1c-8.2,26.2-21.3,48.7-39.5,68.3c-26.6,28.6-59,48.5-94.4,63.9c-20,8.7-40.6,15.7-61.9,20.2
			c-12.9,2.7-25.9,4.8-39,5.9c-16,1.3-32.2,2-48.2,1.8c-12.2-0.2-24.4-2-36.5-3.8c-17.2-2.5-33.9-7.1-50.2-13.4
			c-29.6-11.6-56.6-27.2-76.8-52.5c-13.6-17-21.9-36.5-24.3-58.4c-1.4-13.3-1.1-26.4,1.2-39.5c0.2-1.3,2.1-3.2,3.2-3.2
			c17.1-0.2,34.2-0.1,51.3-0.1c0.6,0,1.1,0.3,1.8,0.6c-0.6,6.4-1.4,12.7-1.8,19c-1.8,27.9,3.8,54,20.8,76.8
			c13,17.5,30,30.3,49.6,39.8c15.6,7.6,32.2,12.8,49.2,14.4c17.5,1.6,35.2,0.8,52.9,0.3c16.4-0.5,32.2-4.6,47.8-9.6
			c25.3-8.1,48.6-20.1,70-35.9c22.6-16.7,41.5-36.7,54.3-61.9c4.7-9.2,7.9-19.2,12-28.7c0.7-1.6,2.6-3.9,4-3.9
			C962.1,547,980.1,547.1,998.5,547.1z"/>
	</g>
</g>
<g id="Layer_2">
</g>
<g id="Layer_3">
</g>
<g id="Layer_4">
	<g>
		<path d="M979.3,375.1h56.4c0,0,17.7-73.2-43.9-121.5c-69.3-54.4-215.3-63.6-309.3-12.9c-132,71.2-210.1,267.2,56.3,305l180.5,0.4
			v-18.3l-176.5-1.5c0,0-137.4-16.2-124.6-139.1c12.8-122.8,137.5-164.6,213.5-164.6C899.5,222.7,994.8,244.4,979.3,375.1z"/>
		<g>
			<path d="M941.4,525.6c-0.1,0.8-0.2,1.6-0.3,2.4h54.7c14.7-70-27.1-139.7-174.9-160.8l-180.5-0.4v18.3l176.5,1.5
				C816.8,386.6,954.2,402.8,941.4,525.6z"/>
			<path d="M938,546.1c-23.9,106.5-139.4,139.4-211,139.4c-67.7,0-162.1-16.9-146.6-147.7H524c0,0-17.7,73.2,43.9,121.5
				c69.3,54.4,215.3,63.6,309.3,12.9c52.4-28.3,96.4-76.2,113.6-126.2H938z"/>
		</g>
		<polygon points="845.4,256.8 761.6,655.5 715.7,655.5 798.9,256.8 		"/>
	</g>
</g>
<!-- <g id="Layer_5">
	<path d="M780.6,100.1c-196.6,0-356,159.4-356,356s159.4,356,356,356s356-159.4,356-356S977.2,100.1,780.6,100.1z M780.6,779.1
		c-178.4,0-323-144.6-323-323s144.6-323,323-323s323,144.6,323,323S959,779.1,780.6,779.1z"/>
</g> -->
</svg>
