<svg id="Layer_1" data-name="Layer 1" xmlns="http://www.w3.org/2000/svg" xmlns:xlink="http://www.w3.org/1999/xlink" viewBox="0 0 1080 1080"><defs><style>.cls-1{fill:white;}.cls-2{fill:white;}.cls-3{fill:none;stroke-miterlimit:10;stroke-width:5px;stroke:white;}</style></defs><title>Text</title><path class="cls-1" d="M383.82,438.72l33.5,89.58a5.64,5.64,0,0,0,.72,0,.56.56,0,0,0,.31-.14,2.31,2.31,0,0,0,.4-.61q16.56-44.2,33.18-88.61h16.52V543.53c-3.59.8-7.14.31-11.21.35-.13-9.73,0-19.19-.06-28.64q0-14.44,0-28.87V457.93l-.57-.09L423.9,543.67h-12l-32.79-86c-1,1.43-.56,2.92-.56,4.26q0,38.62,0,77.25c0,1.47,0,2.94,0,4.6H367.71c-.79-2.77-1-100-.15-105C372.76,438.49,378.07,438.63,383.82,438.72Zm-90.53-2c-29.95-.32-54.81,23.85-55.19,53.6a55,55,0,0,0,54.21,55.81c30.34.32,55-23.88,55.32-54.64C347.56,461.63,324.29,437.08,293.29,436.75Zm-43.71,54.36a43.42,43.42,0,1,1,86.84.06c0,24.46-19.5,44.27-43.51,44C269,535.52,249.53,515.78,249.58,491.11Zm-38.31,35.47c-3.81-5.63-7.75-11.18-11.55-17.13,1.29-.58,2.05-1,2.85-1.27a35.46,35.46,0,0,0,19-49.27c-6.26-12.48-16.68-19.44-30.73-20-10.1-.44-20.24-.16-30.36-.16a11.43,11.43,0,0,0-2.33.46V543.62h11.39V512.47a7.16,7.16,0,0,1,1.74-.59c4.87,0,9.75-.16,14.61,0a4.67,4.67,0,0,1,3,1.8c1.85,2.35,3.45,4.9,5.15,7.37,4.66,6.8,9.3,13.62,14,20.37.66.94,1.72,2.19,2.66,2.26,3.8.26,7.64.11,12.24.11ZM169.79,449.5c1.22-.12,2.28-.3,3.35-.31,5.24,0,10.49.16,15.73,0,10.24-.4,23.7,7.61,25,24a25.37,25.37,0,0,1-14.79,25.52,20.19,20.19,0,0,1-7.16,1.84c-6.48.33-13,.29-19.46.34a15.46,15.46,0,0,1-2.64-.45Zm550.37,48c0,7.59,0,15.31,0,23s0,15.39,0,23.08h10.94V439.11a57.64,57.64,0,0,0-11.13-.06v46.67H662.74c0-15.63-.08-31-.11-46.59H651.46V543.57h11.27V497.16C668.18,496.31,717.14,496.56,720.16,497.46Zm49.54-.8h30.53l15.38,0c.14-3.85.42-7.14-.19-10.83H770c-.92-4.36-.73-33.46.27-36.5H824V439.07c-5.07-.75-63-.52-65.68.22-.81,4.63-.57,101.72.26,104.3,5.83.65,62.7.39,65.71-.38,0-2.39,0-4.87,0-7.35,0-.72-.13-1.44-.23-2.59-18.19-.29-36.23.13-54.36-.23Zm-217-.1V485.91H548q-18.37,0-36.74,0c-1.43,0-2.86-.19-4.19-.29-.8-5.43-.56-33.23.35-36.26,8.87,0,17.85,0,26.83,0s18.11.23,27.16-.18V439a27.69,27.69,0,0,0-2.8-.3q-30,0-60,0a24.63,24.63,0,0,0-3.07.37c-.72,7.86-.41,101.69.33,104.54h65.57a50,50,0,0,0-.05-10.42h-4.82q-22.68,0-45.37,0c-1.43,0-2.86-.22-4.31-.34V496.56ZM944,534.45c10.36,11.52,27.75,14.47,42.11,9,11-4.19,22.4-14.75,20.46-32.14-.87-7.83-4.31-14-10.67-18.5a36.19,36.19,0,0,0-8.26-4.31c-6-2.19-12.13-3.89-18.11-6a73.37,73.37,0,0,1-11.28-4.92c-5.17-2.92-7.18-7.76-6.83-13.61A15.22,15.22,0,0,1,958,452.19c7.91-5.81,16.68-6.4,25.65-3.16,6.9,2.49,11.58,7.26,12.56,14.94a7.32,7.32,0,0,0,.54,1.36c3.43.1,7,.6,10.38-.24a5,5,0,0,0,.3-1,9.51,9.51,0,0,0,0-1.49,26.33,26.33,0,0,0-9.88-17.9c-12.5-10.41-32.06-11.17-45.42-1.7-9.1,6.45-13.45,15.23-12.1,26.49,1.26,10.49,7.85,16.62,17.1,20.42,3.34,1.37,6.8,2.47,10.22,3.64,5.9,2,12,3.66,17.71,6,13,5.32,13.42,21.93,4.07,29.65-12.44,10.27-38.24,7.21-41.56-13.18H936.86C936.61,523.59,939.48,529.37,944,534.45ZM84,511.8c1.84,0,3.18,0,4.53,0,5.75-.07,11.5,0,17.24-.26,20.71-.82,39.11-21.85,32.39-46.33A35.63,35.63,0,0,0,105,438.85c-10.11-.36-20.24-.13-30.36-.13a10.15,10.15,0,0,0-2.1.45V543.64h11.3C84.07,533.05,83.78,522.63,84,511.8Zm.16-62.28c1.34-.09,2.43-.23,3.53-.24,5,0,10,0,15,0,11.74.11,21,7.13,24.44,18.47a25.77,25.77,0,0,1-15.1,31.65,25.32,25.32,0,0,1-8,1.6c-6,.24-12,.1-18,.09a12.94,12.94,0,0,1-1.85-.33Zm757.34-6.38q0,31.49,0,63a42.76,42.76,0,0,0,1.59,13c8.61,27.5,41.62,34.74,62,18.55,9.62-7.65,13.94-18,13.94-30.2q0-32.61,0-65.23c0-1.07-.2-2.14-.32-3.37-3.78,0-7.22-.49-10.93.41v4.58q0,30.55,0,61.1a55.21,55.21,0,0,1-.22,6.36c-1.13,9.63-5.79,16.81-14.65,21.15-5,2.46-10.29,2.82-15.71,2.48a25.15,25.15,0,0,1-22.76-17.75,38.62,38.62,0,0,1-1.42-10.7c-.13-21-.06-42-.07-63,0-1.45-.11-2.91-.18-4.55H841.55C841.55,440.67,841.55,441.91,841.55,443.14ZM608.45,531.82V473c0-4-.06-8,0-12,.07-3.81-.35-7.67.37-11.73h26.72V439a25.53,25.53,0,0,0-2.78-.32q-30.16,0-60.32,0a16,16,0,0,0-2.68.44v10.24H597v94.38h11.43Z"/><path class="cls-2" d="M391.25,624.24c-.49-.31-1-.62-1.48-.92-6.66-4-9.91-9.8-9.4-17.55.5-7.53,4.28-12.91,11.12-16.15a20.29,20.29,0,0,1,8.68-1.87c6.63,0,13.27,0,19.9,0a8.37,8.37,0,0,1,.86.09c.56,1.34.24,2.69.22,4.22-2.66.5-5.28.07-8.33.15.64.66,1,1.07,1.4,1.44,4,3.74,6.45,8.24,6.25,13.86a18.33,18.33,0,0,1-9.36,15.88l-1.4.86.12.39h9.88v19h-38.2a14.52,14.52,0,0,1,0-4.83h33.32v-9.09c-3.82-.19-7.52-.06-11.21-.08s-7.3,0-10.94,0H381.55c-.09-.67-.18-1.12-.19-1.57,0-1,0-2.1,0-3.27,3.36-.57,6.58.07,9.77,0Zm23.17-16.68a14.07,14.07,0,1,0-13.91,14.08A13.84,13.84,0,0,0,414.41,607.56Zm-49-9.29V576a26,26,0,0,1,5.94-.17v55.66h-5.58a32.24,32.24,0,0,1-.21-5.15c-.1-1.68.27-3.4-.32-5.39a17.25,17.25,0,0,0-1,1.47c-4.62,8.91-15.86,12.2-24.51,9.2a22.64,22.64,0,0,1-15.22-23,23.73,23.73,0,0,1,5.53-14.38c7.66-9.1,23-10.37,31.5-.74a39.08,39.08,0,0,1,2.54,3.54c.29.42.55.86.83,1.28Zm-17.7,28.57a16.7,16.7,0,0,0,16.84-17.13c-.1-9.73-7.3-17.17-16.84-17.18a17.16,17.16,0,0,0,0,34.31Zm125.87-15.22H433.82a6,6,0,0,0,.49,4,17.13,17.13,0,0,0,19.2,11,16.34,16.34,0,0,0,11.66-8.15c.16-.28.37-.54.59-.86h6.3a6.18,6.18,0,0,1-.28,1.33c-3.5,7.42-9.22,12.09-17.35,13.38s-15.4-.94-21.16-7.05a22.73,22.73,0,0,1,4.57-35c10.35-6.46,27.38-4.2,33.85,9.85a25.29,25.29,0,0,1,2.09,10A11.16,11.16,0,0,1,473.59,611.62Zm-6.62-5a8.17,8.17,0,0,0,0-1,14.22,14.22,0,0,0-5.49-9.15c-5.77-4.48-12.16-5-18.74-2.2a14.86,14.86,0,0,0-8.86,10.57,13.82,13.82,0,0,0-.2,1.83ZM317,617.49c-2.49,10.26-15.24,17-26.83,14.6a23,23,0,0,1-17.87-26.4c2-12.46,13.84-20.53,26.78-18.63,11.95,1.76,20.67,12.59,19.41,24.44-.72,0-1.48.08-2.25.08H278.76c-.67,4.07,3.32,11.7,10.92,14.36a17.24,17.24,0,0,0,21-8.45H317Zm-5.18-10.71c0-7.59-7.78-14.07-16.5-14.17s-16.27,6.14-16.66,14.17C289.74,606.79,300.75,606.78,311.86,606.78Zm325.78,24.6h5.71V618.8c0-4.11,0-8.22,0-12.33s-.07-8.29.06-12.53h26v12.63c0,4.11,0,8.22,0,12.33s0,8.3,0,12.51h5.77c.44-1.91.39-41.79-.09-43.53H654c-3.48,0-7,0-10.68,0v-12h-5.81C637,578.6,637.19,630,637.64,631.38ZM518.73,587a22.84,22.84,0,1,1-23.08,22.94A23,23,0,0,1,518.73,587Zm.09,39.85c8.7.34,17-7.25,16.91-17.07s-7.3-16.93-17-16.93-16.9,7.23-17,16.91S509.88,627.25,518.81,626.83Zm230-39.85a22.84,22.84,0,1,1-23.2,22.82A22.86,22.86,0,0,1,748.84,587Zm0,39.85c8.61.35,17-7.11,16.92-17.07a16.64,16.64,0,0,0-17-16.93c-9.74,0-16.86,7.21-17,16.91C731.52,619.24,739.8,627.25,748.81,626.83Zm-40.12-19.46v-14H691.45v-5.25h22.67v24.68l4.38.23v18.39h-5.58v-9.44l-.46-.13c-1.09,3.09-2.45,6-5.18,7.93a15.13,15.13,0,0,1-18.15-.18,15.37,15.37,0,0,1-2.64-21.79,14.58,14.58,0,0,1,11-5.67C701.93,601.83,705.55,603.57,708.69,607.37Zm-9.58-.24a10.21,10.21,0,0,0-10.4,10.25,10.29,10.29,0,1,0,10.4-10.25Zm108.5-9.07a11.31,11.31,0,0,0-4.75-8,17.07,17.07,0,0,0-14-2.88,14.67,14.67,0,0,0-8.95,5.14,10.94,10.94,0,0,0-1.92,10.5c.82,2.81,2.91,4.5,5.35,5.86,3.22,1.8,6.78,2.62,10.28,3.64a22.06,22.06,0,0,1,5,1.83c4.42,2.58,4.44,8,.29,11-3.3,2.38-10.29,2.43-13.82-.67a6.63,6.63,0,0,1-2.2-3.24c-.12-.43-.28-.85-.41-1.25h-5.83a23.78,23.78,0,0,0,.45,2.85,12.65,12.65,0,0,0,5.95,7.42,17.26,17.26,0,0,0,11.29,2.27,16.86,16.86,0,0,0,10.54-5c4.44-4.61,4.48-14-2.37-17.92a19.21,19.21,0,0,0-3.63-1.58c-2.65-.85-5.36-1.51-8-2.37a21.68,21.68,0,0,1-4.74-2c-3.51-2.18-3.65-6.41-.4-9a10.77,10.77,0,0,1,9.39-2c3.35.73,5.8,2.53,6.55,6.1,0,.11.17.19.26.29h5.58A6.86,6.86,0,0,0,807.6,598.06Zm-209.93-4.6a22.92,22.92,0,0,0,1.54,34c10.71,9,25.6,5.22,30.93-1.55l-3-2.83c-.29-.27-.59-.51-.88-.75-9.7,7.82-19.72,4.63-24.81-.86a17.48,17.48,0,0,1-1-22.32,16.37,16.37,0,0,1,9.62-6.3c6.45-1.45,12,.49,16.82,5l3.76-4C623.07,585.31,607.8,583.37,597.67,593.46Zm-28.11,7.09v-5.77H558.34V581.39h12V575.9c-3.09-.46-16.79-.29-18.25.25v6.09c0,2.12,0,4.24,0,6.37a36.55,36.55,0,0,1-.22,6.3H545v5.72h7v15.53c0,2.52,0,5,0,7.56s0,5.11,0,7.78c1.21,0,2.14,0,3.06,0s1.93-.07,3.09-.11V600.55Z"/><path class="cls-3" d="M391.25,624.24c-.49-.31-1-.62-1.48-.92-6.66-4-9.91-9.8-9.4-17.55.5-7.53,4.28-12.91,11.12-16.15a20.29,20.29,0,0,1,8.68-1.87c6.63,0,13.27,0,19.9,0a8.37,8.37,0,0,1,.86.09c.56,1.34.24,2.69.22,4.22-2.66.5-5.28.07-8.33.15.64.66,1,1.07,1.4,1.44,4,3.74,6.45,8.24,6.25,13.86a18.33,18.33,0,0,1-9.36,15.88l-1.4.86.12.39h9.88v19h-38.2a14.52,14.52,0,0,1,0-4.83h33.32v-9.09c-3.82-.19-7.52-.06-11.21-.08s-7.3,0-10.94,0H381.55c-.09-.67-.18-1.12-.19-1.57,0-1,0-2.1,0-3.27,3.36-.57,6.58.07,9.77,0Zm23.17-16.68a14.07,14.07,0,1,0-13.91,14.08A13.84,13.84,0,0,0,414.41,607.56Zm-49-9.29V576a26,26,0,0,1,5.94-.17v55.66h-5.58a32.24,32.24,0,0,1-.21-5.15c-.1-1.68.27-3.4-.32-5.39a17.25,17.25,0,0,0-1,1.47c-4.62,8.91-15.86,12.2-24.51,9.2a22.64,22.64,0,0,1-15.22-23,23.73,23.73,0,0,1,5.53-14.38c7.66-9.1,23-10.37,31.5-.74a39.08,39.08,0,0,1,2.54,3.54c.29.42.55.86.83,1.28Zm-17.7,28.57a16.7,16.7,0,0,0,16.84-17.13c-.1-9.73-7.3-17.17-16.84-17.18a17.16,17.16,0,0,0,0,34.31Zm125.87-15.22H433.82a6,6,0,0,0,.49,4,17.13,17.13,0,0,0,19.2,11,16.34,16.34,0,0,0,11.66-8.15c.16-.28.37-.54.59-.86h6.3a6.18,6.18,0,0,1-.28,1.33c-3.5,7.42-9.22,12.09-17.35,13.38s-15.4-.94-21.16-7.05a22.73,22.73,0,0,1,4.57-35c10.35-6.46,27.38-4.2,33.85,9.85a25.29,25.29,0,0,1,2.09,10A11.16,11.16,0,0,1,473.59,611.62Zm-6.62-5a8.17,8.17,0,0,0,0-1,14.22,14.22,0,0,0-5.49-9.15c-5.77-4.48-12.16-5-18.74-2.2a14.86,14.86,0,0,0-8.86,10.57,13.82,13.82,0,0,0-.2,1.83ZM317,617.49c-2.49,10.26-15.24,17-26.83,14.6a23,23,0,0,1-17.87-26.4c2-12.46,13.84-20.53,26.78-18.63,11.95,1.76,20.67,12.59,19.41,24.44-.72,0-1.48.08-2.25.08H278.76c-.67,4.07,3.32,11.7,10.92,14.36a17.24,17.24,0,0,0,21-8.45H317Zm-5.18-10.71c0-7.59-7.78-14.07-16.5-14.17s-16.27,6.14-16.66,14.17C289.74,606.79,300.75,606.78,311.86,606.78Zm325.78,24.6h5.71V618.8c0-4.11,0-8.22,0-12.33s-.07-8.29.06-12.53h26v12.63c0,4.11,0,8.22,0,12.33s0,8.3,0,12.51h5.77c.44-1.91.39-41.79-.09-43.53H654c-3.48,0-7,0-10.68,0v-12h-5.81C637,578.6,637.19,630,637.64,631.38ZM518.73,587a22.84,22.84,0,1,1-23.08,22.94A23,23,0,0,1,518.73,587Zm.09,39.85c8.7.34,17-7.25,16.91-17.07s-7.3-16.93-17-16.93-16.9,7.23-17,16.91S509.88,627.25,518.81,626.83Zm230-39.85a22.84,22.84,0,1,1-23.2,22.82A22.86,22.86,0,0,1,748.84,587Zm0,39.85c8.61.35,17-7.11,16.92-17.07a16.64,16.64,0,0,0-17-16.93c-9.74,0-16.86,7.21-17,16.91C731.52,619.24,739.8,627.25,748.81,626.83Zm-40.12-19.46v-14H691.45v-5.25h22.67v24.68l4.38.23v18.39h-5.58v-9.44l-.46-.13c-1.09,3.09-2.45,6-5.18,7.93a15.13,15.13,0,0,1-18.15-.18,15.37,15.37,0,0,1-2.64-21.79,14.58,14.58,0,0,1,11-5.67C701.93,601.83,705.55,603.57,708.69,607.37Zm-9.58-.24a10.21,10.21,0,0,0-10.4,10.25,10.29,10.29,0,1,0,10.4-10.25Zm108.5-9.07a11.31,11.31,0,0,0-4.75-8,17.07,17.07,0,0,0-14-2.88,14.67,14.67,0,0,0-8.95,5.14,10.94,10.94,0,0,0-1.92,10.5c.82,2.81,2.91,4.5,5.35,5.86,3.22,1.8,6.78,2.62,10.28,3.64a22.06,22.06,0,0,1,5,1.83c4.42,2.58,4.44,8,.29,11-3.3,2.38-10.29,2.43-13.82-.67a6.63,6.63,0,0,1-2.2-3.24c-.12-.43-.28-.85-.41-1.25h-5.83a23.78,23.78,0,0,0,.45,2.85,12.65,12.65,0,0,0,5.95,7.42,17.26,17.26,0,0,0,11.29,2.27,16.86,16.86,0,0,0,10.54-5c4.44-4.61,4.48-14-2.37-17.92a19.21,19.21,0,0,0-3.63-1.58c-2.65-.85-5.36-1.51-8-2.37a21.68,21.68,0,0,1-4.74-2c-3.51-2.18-3.65-6.41-.4-9a10.77,10.77,0,0,1,9.39-2c3.35.73,5.8,2.53,6.55,6.1,0,.11.17.19.26.29h5.58A6.86,6.86,0,0,0,807.6,598.06Zm-209.93-4.6a22.92,22.92,0,0,0,1.54,34c10.71,9,25.6,5.22,30.93-1.55l-3-2.83c-.29-.27-.59-.51-.88-.75-9.7,7.82-19.72,4.63-24.81-.86a17.48,17.48,0,0,1-1-22.32,16.37,16.37,0,0,1,9.62-6.3c6.45-1.45,12,.49,16.82,5l3.76-4C623.07,585.31,607.8,583.37,597.67,593.46Zm-28.11,7.09v-5.77H558.34V581.39h12V575.9c-3.09-.46-16.79-.29-18.25.25v6.09c0,2.12,0,4.24,0,6.37a36.55,36.55,0,0,1-.22,6.3H545v5.72h7v15.53c0,2.52,0,5,0,7.56s0,5.11,0,7.78c1.21,0,2.14,0,3.06,0s1.93-.07,3.09-.11V600.55Z"/></svg>