<svg id="Layer_1" data-name="Layer 1" xmlns="http://www.w3.org/2000/svg" viewBox="0 0 300 400"><defs><style>.cls-1,.cls-5{fill:#fff;}.cls-2,.cls-3{fill:none;}.cls-2,.cls-3,.cls-4{stroke:#fff;stroke-miterlimit:10;}.cls-3{stroke-width:3px;}.cls-5{font-size:16.38px;font-family:ModiaNonCommercialRegular, Modia-NonCommercial;}</style></defs><title>New Horizon</title><rect x="9.5" y="8.5" width="281" height="383"/><path d="M290,9V391H10V9H290m1-1H9V392H291V8Z"/><path class="cls-1" d="M264.75,40V360h-230V40h230m1-1h-232V361h232V39Z"/><path class="cls-1" d="M253.75,40V360h-208V40h208m1-1h-210V361h210V39Z"/><line class="cls-2" x1="265.25" y1="255.5" x2="193.25" y2="360.5"/><line class="cls-2" x1="105.87" y1="361" x2="33.75" y2="255.42"/><line class="cls-2" x1="266.25" y1="141.5" x2="198.25" y2="39.5"/><line class="cls-2" x1="103.82" y1="39" x2="33.75" y2="141.58"/><polygon class="cls-2" points="44.75 200 149.75 39 254.75 200 149.75 361 44.75 200"/><polygon class="cls-2" points="59.75 200 149.75 62 239.75 200 149.75 338 59.75 200"/><polyline class="cls-2" points="121.79 295.13 149.25 262.5 178.4 294.07"/><polyline class="cls-2" points="177.25 104.5 150.25 135.5 122.25 104.5"/><line class="cls-2" x1="102.14" y1="135" x2="197.75" y2="135.5"/><line class="cls-2" x1="95.7" y1="144.87" x2="203.75" y2="144.5"/><line class="cls-2" x1="100.51" y1="262.5" x2="199" y2="262.5"/><line class="cls-2" x1="93.75" y1="251.26" x2="206.75" y2="251.26"/><circle class="cls-3" cx="64.5" cy="337.75" r="7.75"/><circle class="cls-2" cx="64.5" cy="337.75" r="3.75"/><circle class="cls-3" cx="238.5" cy="337.75" r="7.75"/><circle class="cls-2" cx="238.5" cy="337.75" r="3.75"/><circle class="cls-3" cx="64.5" cy="58.75" r="7.75"/><circle class="cls-2" cx="64.5" cy="58.75" r="3.75"/><circle class="cls-3" cx="238.5" cy="58.75" r="7.75"/><circle class="cls-2" cx="238.5" cy="58.75" r="3.75"/><polygon class="cls-2" points="194.57 223.88 194.57 172.13 149.75 146.25 104.93 172.13 104.93 223.88 149.75 249.75 194.57 223.88"/><line class="cls-2" x1="194.25" y1="172.5" x2="105.25" y2="223.5"/><line class="cls-2" x1="105.25" y1="172.5" x2="194.25" y2="223.5"/><polygon class="cls-2" points="150.25 249.5 150.25 146.5 105.25 198 150.25 249.5"/><polyline class="cls-2" points="150.25 146.5 194.25 198 150.25 249.5"/><circle class="cls-2" cx="149.75" cy="198" r="28.5"/><path class="cls-2" d="M237.75,172.58,187.86,95.71a59.9,59.9,0,0,1,49.89,76.87Z"/><line class="cls-2" x1="237.75" y1="172.58" x2="187.86" y2="95.71"/><line class="cls-2" x1="190.43" y1="99.66" x2="194.62" y2="96.95"/><line class="cls-2" x1="193.65" y1="104.62" x2="201.95" y2="99.23"/><line class="cls-2" x1="196.87" y1="109.58" x2="208.34" y2="102.13"/><line class="cls-2" x1="200.08" y1="114.54" x2="214" y2="105.51"/><line class="cls-2" x1="203.3" y1="119.5" x2="219.01" y2="109.3"/><line class="cls-2" x1="206.52" y1="124.45" x2="223.47" y2="113.45"/><line class="cls-2" x1="209.74" y1="129.41" x2="227.4" y2="117.95"/><line class="cls-2" x1="212.95" y1="134.37" x2="230.84" y2="122.76"/><line class="cls-2" x1="216.17" y1="139.33" x2="233.79" y2="127.89"/><line class="cls-2" x1="219.39" y1="144.28" x2="236.25" y2="133.34"/><line class="cls-2" x1="222.61" y1="149.24" x2="238.18" y2="139.14"/><line class="cls-2" x1="225.82" y1="154.2" x2="239.54" y2="145.3"/><line class="cls-2" x1="229.04" y1="159.16" x2="240.26" y2="151.87"/><line class="cls-2" x1="232.26" y1="164.11" x2="240.22" y2="158.95"/><line class="cls-2" x1="235.48" y1="169.07" x2="239.23" y2="166.64"/><path class="cls-2" d="M63.46,171.58l49.89-76.87a59.9,59.9,0,0,0-49.89,76.87Z"/><line class="cls-2" x1="113.35" y1="94.71" x2="63.46" y2="171.58"/><line class="cls-2" x1="106.6" y1="95.95" x2="110.79" y2="98.66"/><line class="cls-2" x1="99.27" y1="98.23" x2="107.57" y2="103.62"/><line class="cls-2" x1="92.88" y1="101.13" x2="104.35" y2="108.58"/><line class="cls-2" x1="87.22" y1="104.51" x2="101.13" y2="113.54"/><line class="cls-2" x1="82.2" y1="108.3" x2="97.92" y2="118.5"/><line class="cls-2" x1="77.75" y1="112.45" x2="94.7" y2="123.45"/><line class="cls-2" x1="73.82" y1="116.95" x2="91.48" y2="128.41"/><line class="cls-2" x1="70.38" y1="121.76" x2="88.26" y2="133.37"/><line class="cls-2" x1="67.42" y1="126.89" x2="85.05" y2="138.33"/><line class="cls-2" x1="64.97" y1="132.34" x2="81.83" y2="143.28"/><line class="cls-2" x1="63.04" y1="138.14" x2="78.61" y2="148.24"/><line class="cls-2" x1="61.67" y1="144.3" x2="75.39" y2="153.2"/><line class="cls-2" x1="60.95" y1="150.87" x2="72.18" y2="158.16"/><line class="cls-2" x1="60.99" y1="157.95" x2="68.96" y2="163.11"/><line class="cls-2" x1="61.99" y1="165.64" x2="65.74" y2="168.07"/><path class="cls-2" d="M61.46,226.71l49.89,76.87a59.9,59.9,0,0,1-49.89-76.87Z"/><line class="cls-2" x1="61.46" y1="226.71" x2="111.35" y2="303.58"/><line class="cls-2" x1="108.79" y1="299.62" x2="104.6" y2="302.34"/><line class="cls-2" x1="105.57" y1="294.66" x2="97.27" y2="300.05"/><line class="cls-2" x1="102.35" y1="289.71" x2="90.88" y2="297.15"/><line class="cls-2" x1="99.13" y1="284.75" x2="85.22" y2="293.78"/><line class="cls-2" x1="95.92" y1="279.79" x2="80.2" y2="289.99"/><line class="cls-2" x1="92.7" y1="274.83" x2="75.75" y2="285.83"/><line class="cls-2" x1="89.48" y1="269.88" x2="71.82" y2="281.34"/><line class="cls-2" x1="86.26" y1="264.92" x2="68.38" y2="276.52"/><line class="cls-2" x1="83.05" y1="259.96" x2="65.42" y2="271.4"/><line class="cls-2" x1="79.83" y1="255" x2="62.97" y2="265.94"/><line class="cls-2" x1="76.61" y1="250.04" x2="61.04" y2="260.15"/><line class="cls-2" x1="73.39" y1="245.09" x2="59.67" y2="253.99"/><line class="cls-2" x1="70.18" y1="240.13" x2="58.95" y2="247.41"/><line class="cls-2" x1="66.96" y1="235.17" x2="58.99" y2="240.34"/><line class="cls-2" x1="63.74" y1="230.21" x2="59.99" y2="232.65"/><path class="cls-2" d="M237.75,227.71l-49.89,76.87a59.9,59.9,0,0,0,49.89-76.87Z"/><line class="cls-2" x1="187.86" y1="304.58" x2="237.75" y2="227.71"/><line class="cls-2" x1="194.62" y1="303.34" x2="190.43" y2="300.62"/><line class="cls-2" x1="201.95" y1="301.05" x2="193.65" y2="295.66"/><line class="cls-2" x1="208.34" y1="298.15" x2="196.87" y2="290.71"/><line class="cls-2" x1="214" y1="294.78" x2="200.08" y2="285.75"/><line class="cls-2" x1="219.01" y1="290.99" x2="203.3" y2="280.79"/><line class="cls-2" x1="223.47" y1="286.83" x2="206.52" y2="275.83"/><line class="cls-2" x1="227.4" y1="282.34" x2="209.74" y2="270.88"/><line class="cls-2" x1="230.84" y1="277.52" x2="212.95" y2="265.92"/><line class="cls-2" x1="233.79" y1="272.4" x2="216.17" y2="260.96"/><line class="cls-2" x1="236.25" y1="266.94" x2="219.39" y2="256"/><line class="cls-2" x1="238.18" y1="261.15" x2="222.61" y2="251.04"/><line class="cls-2" x1="239.54" y1="254.99" x2="225.82" y2="246.09"/><line class="cls-2" x1="240.26" y1="248.41" x2="229.04" y2="241.13"/><line class="cls-2" x1="240.22" y1="241.34" x2="232.26" y2="236.17"/><line class="cls-2" x1="239.23" y1="233.65" x2="235.48" y2="231.21"/><rect class="cls-4" x="83.25" y="188.51" width="133" height="22.99"/><path class="cls-2" d="M34.91,31.21s4-17.75,8.28,0"/><path class="cls-2" d="M51.46,31.15s-4,17.71-8.26,0"/><path class="cls-2" d="M51.35,31.21s4-17.75,8.28,0"/><path class="cls-2" d="M67.89,31.15s-4,17.71-8.26,0"/><path class="cls-2" d="M67.78,31.21s4-17.75,8.28,0"/><path class="cls-2" d="M84.33,31.15s-4,17.71-8.26,0"/><path class="cls-2" d="M84.21,31.21s4-17.75,8.28,0"/><path class="cls-2" d="M100.76,31.15s-4,17.71-8.26,0"/><path class="cls-2" d="M100.64,31.21s4-17.75,8.28,0"/><path class="cls-2" d="M117.19,31.15s-4,17.71-8.26,0"/><path class="cls-2" d="M117.08,31.21s4-17.75,8.28,0"/><path class="cls-2" d="M133.62,31.15s-4,17.71-8.26,0"/><path class="cls-2" d="M133.51,31.21s4-17.75,8.28,0"/><path class="cls-2" d="M150.06,31.15s-4,17.71-8.26,0"/><path class="cls-2" d="M149.94,31.21s4-17.75,8.28,0"/><path class="cls-2" d="M166.49,31.15s-4,17.71-8.26,0"/><path class="cls-2" d="M166.38,31.21s4-17.75,8.28,0"/><path class="cls-2" d="M182.92,31.15s-4,17.71-8.26,0"/><path class="cls-2" d="M182.81,31.21s4-17.75,8.28,0"/><path class="cls-2" d="M199.36,31.15s-4,17.71-8.26,0"/><path class="cls-2" d="M199.24,31.21s4-17.75,8.28,0"/><path class="cls-2" d="M215.79,31.15s-4,17.71-8.26,0"/><path class="cls-2" d="M215.67,31.21s4-17.75,8.28,0"/><path class="cls-2" d="M232.22,31.15s-4,17.71-8.26,0"/><path class="cls-2" d="M232.11,31.21s4-17.75,8.28,0"/><path class="cls-2" d="M248.65,31.15s-4,17.71-8.26,0"/><path class="cls-2" d="M248.54,31.21s4-17.75,8.28,0"/><path class="cls-2" d="M265.09,31.15s-4,17.71-8.26,0"/><path class="cls-2" d="M34.91,31.13s4,17.75,8.28,0"/><path class="cls-2" d="M51.46,31.19s-4-17.71-8.26,0"/><path class="cls-2" d="M51.35,31.13s4,17.75,8.28,0"/><path class="cls-2" d="M67.89,31.19s-4-17.71-8.26,0"/><path class="cls-2" d="M67.78,31.13s4,17.75,8.28,0"/><path class="cls-2" d="M84.33,31.19s-4-17.71-8.26,0"/><path class="cls-2" d="M84.21,31.13s4,17.75,8.28,0"/><path class="cls-2" d="M100.76,31.19s-4-17.71-8.26,0"/><path class="cls-2" d="M100.64,31.13s4,17.75,8.28,0"/><path class="cls-2" d="M117.19,31.19s-4-17.71-8.26,0"/><path class="cls-2" d="M117.08,31.13s4,17.75,8.28,0"/><path class="cls-2" d="M133.62,31.19s-4-17.71-8.26,0"/><path class="cls-2" d="M133.51,31.13s4,17.75,8.28,0"/><path class="cls-2" d="M150.06,31.19s-4-17.71-8.26,0"/><path class="cls-2" d="M149.94,31.13s4,17.75,8.28,0"/><path class="cls-2" d="M166.49,31.19s-4-17.71-8.26,0"/><path class="cls-2" d="M166.38,31.13s4,17.75,8.28,0"/><path class="cls-2" d="M182.92,31.19s-4-17.71-8.26,0"/><path class="cls-2" d="M182.81,31.13s4,17.75,8.28,0"/><path class="cls-2" d="M199.36,31.19s-4-17.71-8.26,0"/><path class="cls-2" d="M199.24,31.13s4,17.75,8.28,0"/><path class="cls-2" d="M215.79,31.19s-4-17.71-8.26,0"/><path class="cls-2" d="M215.67,31.13s4,17.75,8.28,0"/><path class="cls-2" d="M232.22,31.19s-4-17.71-8.26,0"/><path class="cls-2" d="M232.11,31.13s4,17.75,8.28,0"/><path class="cls-2" d="M248.65,31.19s-4-17.71-8.26,0"/><path class="cls-2" d="M248.54,31.13s4,17.75,8.28,0"/><path class="cls-2" d="M265.09,31.19s-4-17.71-8.26,0"/><path class="cls-2" d="M34.91,369.21s4-17.75,8.28,0"/><path class="cls-2" d="M51.46,369.15s-4,17.71-8.26,0"/><path class="cls-2" d="M51.35,369.21s4-17.75,8.28,0"/><path class="cls-2" d="M67.89,369.15s-4,17.71-8.26,0"/><path class="cls-2" d="M67.78,369.21s4-17.75,8.28,0"/><path class="cls-2" d="M84.33,369.15s-4,17.71-8.26,0"/><path class="cls-2" d="M84.21,369.21s4-17.75,8.28,0"/><path class="cls-2" d="M100.76,369.15s-4,17.71-8.26,0"/><path class="cls-2" d="M100.64,369.21s4-17.75,8.28,0"/><path class="cls-2" d="M117.19,369.15s-4,17.71-8.26,0"/><path class="cls-2" d="M117.08,369.21s4-17.75,8.28,0"/><path class="cls-2" d="M133.62,369.15s-4,17.71-8.26,0"/><path class="cls-2" d="M133.51,369.21s4-17.75,8.28,0"/><path class="cls-2" d="M150.06,369.15s-4,17.71-8.26,0"/><path class="cls-2" d="M149.94,369.21s4-17.75,8.28,0"/><path class="cls-2" d="M166.49,369.15s-4,17.71-8.26,0"/><path class="cls-2" d="M166.38,369.21s4-17.75,8.28,0"/><path class="cls-2" d="M182.92,369.15s-4,17.71-8.26,0"/><path class="cls-2" d="M182.81,369.21s4-17.75,8.28,0"/><path class="cls-2" d="M199.36,369.15s-4,17.71-8.26,0"/><path class="cls-2" d="M199.24,369.21s4-17.75,8.28,0"/><path class="cls-2" d="M215.79,369.15s-4,17.71-8.26,0"/><path class="cls-2" d="M215.67,369.21s4-17.75,8.28,0"/><path class="cls-2" d="M232.22,369.15s-4,17.71-8.26,0"/><path class="cls-2" d="M232.11,369.21s4-17.75,8.28,0"/><path class="cls-2" d="M248.65,369.15s-4,17.71-8.26,0"/><path class="cls-2" d="M248.54,369.21s4-17.75,8.28,0"/><path class="cls-2" d="M265.09,369.15s-4,17.71-8.26,0"/><path class="cls-2" d="M34.91,369.13s4,17.75,8.28,0"/><path class="cls-2" d="M51.46,369.19s-4-17.71-8.26,0"/><path class="cls-2" d="M51.35,369.13s4,17.75,8.28,0"/><path class="cls-2" d="M67.89,369.19s-4-17.71-8.26,0"/><path class="cls-2" d="M67.78,369.13s4,17.75,8.28,0"/><path class="cls-2" d="M84.33,369.19s-4-17.71-8.26,0"/><path class="cls-2" d="M84.21,369.13s4,17.75,8.28,0"/><path class="cls-2" d="M100.76,369.19s-4-17.71-8.26,0"/><path class="cls-2" d="M100.64,369.13s4,17.75,8.28,0"/><path class="cls-2" d="M117.19,369.19s-4-17.71-8.26,0"/><path class="cls-2" d="M117.08,369.13s4,17.75,8.28,0"/><path class="cls-2" d="M133.62,369.19s-4-17.71-8.26,0"/><path class="cls-2" d="M133.51,369.13s4,17.75,8.28,0"/><path class="cls-2" d="M150.06,369.19s-4-17.71-8.26,0"/><path class="cls-2" d="M149.94,369.13s4,17.75,8.28,0"/><path class="cls-2" d="M166.49,369.19s-4-17.71-8.26,0"/><path class="cls-2" d="M166.38,369.13s4,17.75,8.28,0"/><path class="cls-2" d="M182.92,369.19s-4-17.71-8.26,0"/><path class="cls-2" d="M182.81,369.13s4,17.75,8.28,0"/><path class="cls-2" d="M199.36,369.19s-4-17.71-8.26,0"/><path class="cls-2" d="M199.24,369.13s4,17.75,8.28,0"/><path class="cls-2" d="M215.79,369.19s-4-17.71-8.26,0"/><path class="cls-2" d="M215.67,369.13s4,17.75,8.28,0"/><path class="cls-2" d="M232.22,369.19s-4-17.71-8.26,0"/><path class="cls-2" d="M232.11,369.13s4,17.75,8.28,0"/><path class="cls-2" d="M248.65,369.19s-4-17.71-8.26,0"/><path class="cls-2" d="M248.54,369.13s4,17.75,8.28,0"/><path class="cls-2" d="M265.09,369.19s-4-17.71-8.26,0"/><text class="cls-5" transform="translate(89.44 205.59)">New Horizon</text></svg>