<svg id="Layer_1" data-name="Layer 1" xmlns="http://www.w3.org/2000/svg" xmlns:xlink="http://www.w3.org/1999/xlink" viewBox="0 0 1080 1080"><defs><style>.cls-1{fill:none;}.cls-2{fill:#25aaf0;}.cls-3{fill:#d82985;}.cls-4{fill:#1c1330;}.cls-5{fill:#1b122f;}.cls-6{fill:#481c49;}.cls-7{fill:#ee9e59;}.cls-8{clip-path:url(#clip-path);}.cls-9{fill:#bd2836;}</style><clipPath id="clip-path"><path class="cls-1" d="M825.35,408.61l-377.7-18.84a13,13,0,1,0-12.49,11.46c.34,0,.67,0,1-.08l1.69,52.12,56.42,70.34,66.29,3.86,17.11-28.62L698.16,505,713,528.54l86.31,3.21L849.33,468l-2.6-80.11Z"/></clipPath></defs><title>Logo</title><path class="cls-2" d="M898.33,437V456.2h-.13L856.72,454v12.12l41.6,2.19V481h-.09l-41.49-2.19v7.44l41.56,2.19v8.68h-.06L856.79,495v7.38l41.54,2.19v5.12h0l-41.5-2.19v5.78l41.49,2.19h0v3.2h0l-41.5-2.19v5.51l41.46,2.19h0v1.54h-.14l-41.36-2.17v.82a28.31,28.31,0,0,1-19.18,26.85,28,28,0,0,1-9.2,1.5l-17.84,0-41.37-.1c-.89,10.27-1.06,19,1.34,31,5.22,26.12-3.49,54-5.24,81.85s-22.63,134.1-76.62,198.53c0,0-15.09,5.45-32.52,10.8l-3.48,16.19s3.49,12.19,0,15.68,1.75,10.44,0,22.65-15.66,31.34-20.9,36.56c-2.3,2.3-6.27,9.3-10,16.44-4.76,9.1-9.14,18.4-9.14,18.4S382.8,880.4,374.09,871.69s-66.76-34-99.85-79.24,4.08-28.74,5.81-35.71a228.85,228.85,0,0,0,8.71-62.7c0-28.75,4.81-30.54-.79-33.95-3.59.06-12.15,1.7-21.13,0-9.16-1.73-13.5-8.7-23.95-24.38s-12.2-13.93-20.9-24.38-8.71-10.46-10.46-17.42-3.48-17.41-7-19.15-8.7-7-15.66-20.9-5.24-34.83-7-41.8,5.22-22.63,7-29.6c1-3.95,8.1-7.34,14.1-9.53a123.67,123.67,0,0,1-3.66-14.86c-5.22-26.12-7-26.12-7-41.79,0-4.61,1.06-11.32,2.49-18.44a4.3,4.3,0,0,1-.57-1.44s5-16.69,5-20.18h.51c2.1-8.54,3.68-14.63,3-13.93-1.75,1.75-12.2-41.79,0-59.21s13.92-31.34,20.89-38.31,7-13.93,17.42-19.15,12.19-20.9,13.93-22.65,8.7-7,13.93-12.19,19.15-17.42,19.15-17.42h-7S363.85,73.48,516.66,79.66c58.81,2.37,128,23.42,206.9,77.13,0,0-7,20.9,0,20.9s22.65,7,24.39,33.09c0,0,62.7-5.22,59.21,95.79-.76,22.16-.77,39.37-.41,52.87l11.14.67,1,11.4L835.13,377,837,433.74Z"/><path class="cls-3" d="M898.33,433.35v19.23h-.13V464.7h.11v12.7h-.09v7.44h.07v8.68h-.06v7.38h.06V506h0v5.78h0V515h0v5.51h0v1.54h0v.82c0,.41,0,.84,0,1.26s-.06,1-.1,1.53a28.32,28.32,0,0,1-28.25,25.56l-32.29-.07-26.92-.07c0,.51-.09,1-.11,1.53A97.29,97.29,0,0,0,812.07,582c5.22,26.12-3.49,54-5.24,81.85S784.21,798,730.22,862.42c0,0-15.09,5.45-32.52,10.8l-3.48,16.19s3.49,12.19,0,15.68,1.75,10.44,0,22.65-15.66,31.34-20.9,36.56-19.15,34.83-19.15,34.83-12.75-6.67-32.34-17c-63.64-33.45-199.59-105.24-206.25-111.91-8.7-8.71-66.76-34-99.85-79.24s4.08-28.74,5.81-35.71a228.85,228.85,0,0,0,8.71-62.7c0-28.75,4.81-30.54-.79-33.95-3.59.06-12.15,1.7-21.13,0-9.16-1.73-13.5-8.7-23.95-24.38s-12.2-13.93-20.9-24.38-8.71-10.46-10.46-17.42-3.48-17.41-7-19.15-8.7-7-15.66-20.9-5.24-34.83-7-41.8,5.22-22.63,7-29.6c1-3.95,8.1-7.34,14.1-9.53a123.67,123.67,0,0,1-3.66-14.86c-5.22-26.12-7-26.12-7-41.79,0-4.61,1.06-11.32,2.49-18.44a4.3,4.3,0,0,1-.57-1.44s5-16.69,5-20.18h.51c2.1-8.54,3.68-14.63,3-13.93-1.75,1.75-12.2-41.79,0-59.21s13.92-31.34,20.89-38.31,7-13.93,17.42-19.15,12.19-20.9,13.93-22.65,8.7-7,13.93-12.19,19.15-17.42,19.15-17.42h-7s67.74-98.26,194-112.27c66.85-7.42,150.09,8.77,248.38,75.7,0,0-7,20.9,0,20.9s22.65,7,24.39,33.09c0,0,62.7-5.22,59.21,95.79-.76,22.16-.77,39.37-.41,52.87l11.14.67,1,11.4,16.22,5.49,1.85,56.73Z"/><path class="cls-4" d="M235.86,471.7s-20.9,5.22-22.64,12.19-8.71,22.64-7,29.61,0,27.86,7,41.8,12.19,19.16,15.67,20.9,5.22,12.19,7,19.16,1.74,7,10.45,17.42,10.45,8.71,20.9,24.38,14.8,22.64,23.95,24.38,17.85,0,21.33,0,7-5.22,8.71-10.45,0-43.54,0-43.54S320.79,577,320.12,567s-2.33-47.56-2.33-47.56l-13.06-31-20.12-11.52L258.5,471.7Z"/><path class="cls-5" d="M283.47,615.38l8.32,40.49s6.77-1.31,17.21,3.92,4.07,2.61,4.07,35.7a229.13,229.13,0,0,1-8.71,62.7c-1.74,7-38.9-9.58-5.81,35.7s91.15,70.53,99.86,79.24S637,1002,637,1002s13.93-29.61,19.16-34.83,19.16-24.38,20.9-36.57-3.48-19.16,0-22.64,0-15.67,0-15.67l8.12-37.9.59-104.9L391.45,651.95l-83.59-54Z"/><path class="cls-5" d="M336.87,301c5.22-13.93,8.71-15.67,17.42-22.64s24.38-12.19,36.57-15.67,27.86-7,36.57-12.19,41.8-17.42,54-22.64,19.16-12.19,43.54-13.93,13.93-3.48,52.25,0,43.54,1.74,48.76,7,10.45,1.74,27.86,22.64,34.83,31.35,45.28,36.57,3.48-1.74,31.35,12.19,22.64,17.42,41.8,33.09,22.64,19.16,26.12,38.31,5.22,19.16,7,47-8.71,47-8.71,92.3-7,55.73-1.74,81.85-3.48,54-5.22,81.85S767,800.85,713,865.29c0,0-62.7,22.64-80.11,20.9s-38.31,0-61-7S392.6,753.83,396.09,741.64s-34.83-29.61-41.8-33.09-10.45-31.35-8.71-47-47-212.47-40.06-222.92S336.87,301,336.87,301Z"/><path class="cls-6" d="M662.54,724.22c8.71,3.48-17.42,34.83-27.86,36.57-9.72,1.62-31.35,3.48-33.09,7s-10.45,8.71,5.22,10.45,38.31,1.74,41.8,5.22,5.22,10.45,5.22,20.9-3.48,31.35-7,41.8-10.45,15.67-24.38,17.42-52.25-3.48-55.73,0-41.8-7-41.8-7-31.35-26.12-33.09-24.38S464,811.3,458.78,807.82,430.92,780,425.69,774.73s-31.35-20.9-34.83-26.12-1.74-8.71-17.42-22.64-19.16-3.48-15.67-13.93-17.42-31.35-17.42-36.57-1.74-17.42,0-22.64-47,5.22-50.5,0-50.5-47-48.76-57.47-1.74-19.16-5.22-22.64-8.71-3.48-10.45-15.67-34.83-94,62.7-61c0,0,36.57,26.12,40.06,38.31s13.93,34.83,13.93,34.83-4.35,11.32,2.61,16.54S356.9,591,356.9,591s-5.22-59.21-3.48-61,7-3.48-1.74,1.74-3.48-22.64-3.48-22.64,8.71-10.45,12.19-13.93,1.74-13.93,3.48-17.42-1.74-22.64-1.74-22.64l-10.45,5.22,3.48-19.16-13.93,8.71,13.93-26.12a133.82,133.82,0,0,1,10.45-12.19c5.22-5.22,3.48-12.19,3.48-15.67s-1.74-7-8.71-1.74a44,44,0,0,1-15.67,7l7-12.19L367.35,375,343,383.75s19.16-10.45,20.9-13.93-13.93,3.48-17.42,3.48,5.22,0,10.45-7,1.74-8.71-3.48-7-7,1.74-3.48-3.48,8.71-12.19,10.45-13.93-3.48-1.74-8.71,0,1.74-15.67,5.22-15.67S344.71,328,344.71,328l22.64-17.42s-17.42,1.74-19.16,3.48,1.74-3.48,5.22-5.22,3.48-5.22,8.71-5.22-15.67-1.74-15.67-1.74l-8.71-7s45.28-27.86,69.66-33.09,68.79-63.57,100.14-67,127.13,7,148,17.42a406.34,406.34,0,0,1,61,38.31c15.67,12.19,0,33.09,8.71,40.06s-39.18,4.35-28.74,30.48,8.71,36.57,15.67,45.28,13.93,19.16,12.19,26.12-12.19,20.9-24.38,29.61-31.35,19.16-52.25,15.67-34.83-7-48.76-17.42-36.57-22.64-48.76-22.64-33.09-3.48-40.06,1.74-12.19,5.22-15.67,10.45,15.67,114.94,54,118.43,64.44-5.22,73.15-10.45,15.67-24.38,24.38-29.61,13.93-13.93,15.67-8.71,41.8,120.17,33.09,130.62-12.19,10.45-36.57,17.42S625.1,646.72,639,658.91s29.61,33.09,29.61,41.8-8.71-1.74-31.35,0-94.91,16.54-94.91,16.54-5.22,10.45,3.48,10.45c10.45,0,62.45-8.3,74-7.84A390.71,390.71,0,0,1,662.54,724.22Z"/><path class="cls-3" d="M598.11,222.66s-175.9,22.64-195.05,66.18h15.67s-15.67,7-17.42,38.31c0,0,8.71-10.45,12.19-7s3.48,22.64-12.19,52.25-19.16,26.12-19.16,38.31v33.09c0,3.48-1.74,31.35,0,38.31s3.48,22.64,0,27.86-7,13.93-8.71,20.9-5.22,3.48,0,7,20.9,19.16,15.67,34.83-12.19,43.54-10.45,62.7,12.19,47,15.67,48.76c0,0,3.48-19.16,12.19-24.38s8.71-7,10.45-7-5.22,41.8-3.48,48.76S397.83,739.9,471,790.4s106.23,66.18,123.65,64.44,31.35,3.48,40.06-7,13.93-26.12,15.67-41.8,3.48-15.67-5.22-20.9-22.64-1.74-22.64-1.74-59.21,12.19-67.92,24.38c0,0-33.09-5.22-50.5-40.06,0,0,3.48,1.74,13.93-12.19s8.71-19.16,10.45-29.61,0-15.67,13.93-24.38,20.9-17.42,26.12-17.42-3.48,10.45,1.74,13.93-3.48,13.93,8.71,7,8.71-8.71,20.9-10.45,10.45-3.48,22.64-5.22,13.93-1.74,17.42,0-3.48,1.74-7-13.93-8.71-7,3.48-26.12,8.71-27.86,1.74-24.38-38.31,5.22-38.31,1.74,5.22-38.31,45.28-29.61c0,0,10.45,13.93,15.67,13.93s3.48,0,10.45-5.22,10.45-7,8.71-17.42-19.16-97.53-22.64-106.23-26.12,12.19-34.83,15.67-24.38,3.48-41.8,0-45.28,7-69.66-13.93-31.35-24.38-34.83-34.83-7-15.67-5.22-29.61-10.45-12.19,3.48-20.9,24.38-13.93,38.31-12.19,67.92,8.71,88.82,5.22,27.86,3.48,24.38-12.19-10.45-31.35-8.71-54,13.93-31.35,5.22-59.21-8.71-29.61-12.19-33.09S598.11,222.66,598.11,222.66Z"/><path class="cls-3" d="M549.34,753.83c-2.27,2.64-3.48,38.31-3.48,38.31s10.45-10.45,20.9-12.19,17.42-3.48,20.9-10.45,3.48-17.42,3.48-19.16-1.74-7,15.67-7,26.12-3.48,27.86-8.71S580.69,717.26,549.34,753.83Z"/><path class="cls-2" d="M408.28,550.07s5.22,8.71,12.19,13.93,17.42,10.45,17.42,10.45l-15.67,13.93s7-5.22,24.38-5.22,33.09,1.74,38.31,3.48,13.93,1.74,13.93,1.74-26.12,1.74-29.61,7-10.45,12.19-7,8.71,15.67-10.45,19.16-8.71,5.22,0,10.45,1.74,7-10.45,7,1.74,0,15.67,5.22,24.38,5.22,17.42,3.48,22.64-8.71,15.67-17.42,22.64S471,677.2,471,682.43s5.22,3.48,7,5.22,0,3.48-1.74,5.22-1.74,0,1.74,5.22,7,8.71,10.45,10.45-1.74,0-7,3.48-8.71,1.74-10.45,3.48-5.22,0-10.45-7-12.19-24.38-7-8.71,3.48,7,8.71,24.38,5.22,17.42,8.71,24.38,8.71,17.42,1.74,12.19-13.93,0-24.38-15.67S432.66,727.71,436.14,712s7-24.38,7-36.57V645.85c0-8.71,1.74-19.16-1.74-22.64s-7-7-10.45-5.22,10.45-10.45,12.19-13.93,12.19-10.45,8.71-8.71-22.64,5.22-33.09,5.22a75.93,75.93,0,0,1-20.9-3.48s-1.74-5.22,7-10.45,13.93-7,13.93-10.45-7-10.45-7-10.45Z"/><path class="cls-2" d="M530.19,675.46c-1.74,7-5.22,8.71-5.22,13.93s0,3.48-3.48,10.45-5.22,10.45,0,5.22,8.71-12.19,12.19-13.93,8.71-5.22,7-10.45S530.19,665,530.19,670.24Z"/><path class="cls-2" d="M622.49,795.63c-5.22,1.74-13.93,1.74-19.16,12.19s-22.6,18.51-17.42,19.16c13.93,1.74,17.42-1.74,24.38,0s12.19-7,19.16-13.93,7-8.71,7-13.93-7-7-10.45-5.22Z"/><path class="cls-6" d="M324.68,672.38s24.19-1.61,25.8,1.61,38.7,61.27,45.15,64.5S418.2,765.9,418.2,765.9s-24.19-22.57-29-22.57,11.29-1.61,22.57,56.43,19.16,79.46,19.16,79.46-125.39-74.89-108-92.3C330.92,778.94,324.68,672.38,324.68,672.38Z"/><path class="cls-2" d="M525.83,329.76c0,1.74,22.64,0,33.09,0s22.64,1.74,26.12,0,8.71,0,8.71,0-12.19,3.48-13.93,5.22,5.22,0,7,1.74,8.71-7,7,5.22,0,19.16-1.74,22.64-7,10.45-24.38,8.71a155.9,155.9,0,0,0-31.35,0S499.71,375,491,378.53s-22.64,7-27.86,13.93-5.22,1.74-7,10.45-3.48,8.71-13.93,12.19-19.16,3.48-19.16,5.22-10.45-3.48,0-8.71,12.19-10.45,19.16-19.16S459.65,375,459.65,375s-8.71-5.22-17.42-3.48A128,128,0,0,0,428.3,375l26.12-29.61S444,342,438.75,347.18s19.16-13.93,19.16-13.93l-12.19-3.48,26.12-27.86-22.64-8.71-10.45-15.67s0-5.22,1.74-7,109.72-34.83,130.62-29.61,22.64-5.22,19.16,12.19-5.22,24.38-7,34.83,3.48,19.16-3.48,22.64-19.16,5.22-33.09,12.19S525.83,329.76,525.83,329.76Z"/><path class="cls-3" d="M332.24,683.11l13.93,3.48s3.48-3.48,7,10.45,12.19,27.86,13.93,31.35,5.22,8.71,5.22,8.71l-15.67-7a43.67,43.67,0,0,1,7,15.67c1.74,8.71,10.45,24.38,12.19,33.09s-1.74,7,5.22,27.86,8.71,27.86,10.45,29.61-5.22,1.74-12.19-1.74-15.67-8.71-22.64-17.42-17.42-26.12-17.42-26.12-3.48-24.38-3.48-38.31S332.24,683.11,332.24,683.11Z"/><path class="cls-2" d="M346.17,726.65s5.22,17.42,8.71,26.12,7,17.42,8.71,26.12-1.74,19.16,0,22.64,0,3.48,0,3.48a128.27,128.27,0,0,0-8.71-10.45c-3.48-3.48-10.45-3.48-8.71-13.93s-3.48-13.93,0-17.42S346.17,726.65,346.17,726.65Z"/><path class="cls-4" d="M368.22,591.87s-7,17.42-17.42,0S336.87,574.45,335.13,557a81.21,81.21,0,0,0-10.45-31.35s24.38,10.45-27.86,0-66.18-10.45-64.44-17.42,1.74-20.9,0-26.12-3.48,3.48-8.71-22.64-7-26.12-7-41.8,12.19-55.73,10.45-54-12.19-41.8,0-59.21,13.93-31.35,20.9-38.31,7-13.93,17.42-19.16,12.19-20.9,13.93-22.64,8.71-7,13.93-12.19,19.16-17.42,19.16-17.42h-7S464-35.09,747.88,158.22c0,0-7,20.9,0,20.9s22.64,7,24.38,33.09c0,0,62.7-5.22,59.21,95.79s8.71,99.27,0,111.46-13.93,19.16-13.93,24.38-16.82,12-16.82,12-4.08,3.67-11-1.56-12.19-20.9-12.19-26.12-8.71-27.86-8.71-33.09-5.22-10.45-13.93-12.19S727,374.17,727,374.17a53.47,53.47,0,0,1-12.19-13.93c-5.22-8.71-13.93,5.22-13.93-24.38s1.74-38.31,3.48-41.8,1.74-24.38,1.74-24.38l-7,10.45-8.71-13.93-3.48-17.42s-4.32,13.23-5.64,20.55-6.55-22.29-10-24-17.42-1.74-17.42-1.74L531.93,273.16s98.45-23.29,112.79-39.51c12.19-13.78,6.47-14.59-18-9.18-4.32,1-9.22,2.11-14.72,3.42-36.57,8.71-47,7-47,7S551.08,194.79,525,212.21s-43.54,26.12-62.7,38.31-27.86,7-45.28,22.64-26.12,24.38-41.8,26.12-29.61-5.22-22.64,3.48,22.64,27.86,22.64,27.86l-10.45,10.45c-15.67,15.67-8.71,26.12-3.48,34.83s12.19,27.86,3.48,47-27.86,36.57-27.86,41.8,13.93,8.71,13.93,17.42S368.22,591.87,368.22,591.87Z"/><path class="cls-6" d="M233.12,491.53l7.71-1.6,8.56-1.93s16.55-2.25,22.83,1.77,21.69.16,28.54,5.94,12,3.21,15.41,8.34,3.43,7.06,5.14,12.84,6.85,19.25,6.85,19.25l-102.75-27Z"/><path class="cls-3" d="M337.47,629.07c-2.91,2.91-7.28,2.91-11.65,4.37s-8.74,7.28-20.39,0-11.65-7.28-21.84-8.74S257.38,607.23,254.47,597s-29.12-68.44-26.21-75.72,11.65-34.95,34.95-24.75,29.12,13.1,34.95,17.47,14.56,5.82,16,10.19,0,10.19,2.91,17.47,7.28,52.42,13.1,58.24S337.47,629.07,337.47,629.07Z"/><path class="cls-2" d="M657.89,508.13c2.29,9.09,6,7.83,6.77,15s-5.54,15.07-3.48,25.89S665,560,665.53,568.91s4.25,7.6,7.24,11.52,2.52,7.37-1.39,10.36-10,9.2-14.74,5-7.47-9.79-16.33-9.23-18.19,4.58-23.6,5.61-10.82,2.06-16.93,8.27-11.05,3.79-10.82,2.06l1.86-13.81c.7-5.18-5.41,1-6.57,9.66s-4.28,18.75-3,22.44-4.38,6.44-4-9.33-2.39-21.41,1.76-26.12,2.65-6.67,10.26-10.92,3.92-3,18.89-9.76,22.8-12.75,22.8-12.75,7.37-2.52,10.72-14.37-.1-12.31,4.51-20.48,7.5-16.56,9.46-18.06S657.89,508.13,657.89,508.13Z"/><path class="cls-4" d="M686.78,339.84l-.55-16.93-6.33-9.82-74.36-5.61-7.88,4.27,1.06,21.37-12.43-.95,15.42,50.68-.75,0-26.88-25.19,9.32-11.71L401.95,335l-22.36,23,10.85,148L424,551l154.41,1,12.78-38.51,100.4,4.76,17.19,35.53,144,.35a28.31,28.31,0,0,0,28.38-28.36L881,447.92l-19.69-11.4-1.89-58.08-16.22-5.49-1-11.4-144-8.7,6.45,12.57-23.44,19.27,15.62-44.08Z"/><polyline class="cls-3" points="437.01 427.56 408.96 428.14 408.57 416.13 414.58 415.93 414.13 401.91 408.12 402.11 407.73 390.09 415.55 383.82 405.27 376.13 404.43 350.1 498.88 357.06 543.16 394.54"/><path class="cls-3" d="M857.15,473.8a2.13,2.13,0,0,1,3.84,1.33l-1.3,59.59a2.51,2.51,0,0,1-2.52,2.42l-42.24-.32a2.51,2.51,0,0,1-1.87-4.15Z"/><polygon class="cls-3" points="407.68 450.24 411.37 502.24 432.37 531.64 486.58 533.89 407.29 438.22 407.68 450.24"/><path class="cls-7" d="M825.35,408.61l-377.7-18.84a13,13,0,1,0-12.49,11.46c.34,0,.67,0,1-.08l1.69,52.12,56.42,70.34,66.29,3.86,17.11-28.62L698.16,505,713,528.54l86.31,3.21L849.33,468l-2.6-80.11Z"/><polyline class="cls-2" points="404.43 350.1 420.97 365.6 487.25 369.46 498.88 357.06"/><rect class="cls-3" x="744.56" y="389.78" width="87.45" height="18.28" rx="4.56" ry="4.56" transform="translate(23.57 -43.5) rotate(3.21)"/><path class="cls-6" d="M387.4,378.17l10.43,137.07S220.54,412.78,218.63,397.83c0,0,5-16.69,5-20.17,0,0,155,0,163.71-10.45Z"/><path class="cls-6" d="M444.85,200s-59.21,15.67-73.15,38.31c0,0,8.71-27.86,15.67-27.86,0,0-10.45,1.74-15.67,10.45,0,0,8.71-24.38,22.64-24.38S446.59,194.79,444.85,200Z"/><path class="cls-6" d="M437.88,233.11s88.82-59.21,170.67-57.47C608.55,175.64,493.61,151.25,437.88,233.11Z"/><path class="cls-6" d="M462.26,196.53S524,156.12,575.8,163.43C575.8,163.43,505,135.81,462.26,196.53Z"/><path class="cls-6" d="M257.55,567.14s0,9.67,4.84,14.51S276.9,599.38,278.51,601s6.45,1.61,6.45,3.22-22.57,0-22.57,0a58.18,58.18,0,0,0,8.06,6.45c4.84,3.22,17.73,6.45,21,8.06s16.12,3.22,16.12,3.22,3.22,1.61,14.51,0a151.56,151.56,0,0,1,19.34-1.61s8.06,4.84,0,8.06-13.4,9.21-19.54,11.74c-6.62,2.72-19.5-3.71-24.32-5.72s-12.56-9.24-19-9.24-21-6.45-21-6.45,3.22,3.22,0-4.84-9.67-25.79-9.67-25.79,8.06-4.84,0-8.06A41.64,41.64,0,0,1,235,572s-1.61-8.06,0-11.28,0-11.28,0-11.28l-6.45-17.73s11.28,14.51,12.9,17.73,4.84,9.67,4.84,3.22-4.84-12.9-4.84-12.9-9.67-3.22-9.67-8.06-1.61-14.51,1.61-17.73,6.45-9.67,6.45-9.67,1.61-8.06,9.67-9.67,12.9-4.84,19.34,0,3.22,0,9.67,6.45,4.84,3.22,8.06,6.45,14.51,0,16.12,1.61-1.61,4.84,3.22,8.06,8.06,1.61,8.06,8.06-3.22,8.06-3.22,16.12v21s4.84,8.06,6.45,14.51,4.84,9.67,0,4.84-8.06,0-9.67-11.28A92.76,92.76,0,0,0,302.69,551l-1.61-13.7s-8.06-7.25-8.06-5.64-6.45-3.22-6.45-3.22l-9.67-9.67c-3.22-3.22-7.81-6.14-9.42-4.53s1.36-3.53-.25,4.53,3.22,6.45,1.61,11.28-1.61,1.61-6.45,4.84-8.87.81-8.46,4.43,2,5.24,3.63,6.85-3.22,8.06-3.22,8.06-1.61,1.61.81,5.64S257.55,563.92,257.55,567.14Z"/><path class="cls-4" d="M316,609.55S300.6,597,295,599.76s-9.11,8.77-16.1,3.18-9.05-4.57-7.66-14.35,0-26.55,8.38-30.74,7-11.18,15.37-7,12.58,4.19,11.18,8.38-4.19,4.19-7,11.18-5.59,9.78-5.59,15.37-1.4,5.59,2.79,7S316,609.55,316,609.55Z"/><path class="cls-4" d="M282.89,518.11s-6.64-5-8.3-3.32-3.32-5-11.61-3.32-13.27,0-14.93,8.3-5,6.64,0,14.93,5,10,5,18.25,1.66,11.61,3.32,13.27,1.66,21.57,1.66,0S256.78,545,261.75,540s9.52-10.27,9.52-10.27,11.61-1.66,11.61-6.64Z"/><path class="cls-2" d="M293.49,537.22S277,545.74,275,548.74l-8,12s-2.52-12.48,0-13l-5,1,2-3,2-3s2-3,4.49-3.5l10-2-2,3-2.5.5,7.49-1.51,7.49-1.51Z"/><path class="cls-2" d="M306.49,608.81a13,13,0,0,0-3.69-4.75c-2.88-2.52-6.82-.41-6.82-.41a10.45,10.45,0,0,1,3.23,4.15c1.26,2.82,2.07,5.05,5.07,6.53s13.07,1.26,14.81-.09,6.61-7,.47-4.17S306.49,608.81,306.49,608.81Z"/><path class="cls-3" d="M238.6,383.71s126.34,9.68,133.27,8.46c0,0-34.42,4.18-41.14,3.45,0,0,40.08,6.3,43.44,6.66,0,0-64.64.92-67.79-1.39,0,0,72.4,5.84,74.08,6,0,0-31.48,8.44-38.2,7.72,0,0,22.87,8.39,26.44,6.8,0,0-14.06,4.4-24.14,3.31l33.58,3.62s-35.89,2-39.25,1.68c0,0,31.27,9.29,36.31,9.84,0,0-45.75-1-47.43-1.17,0,0,54.64,12.09,56.11,12.09,1.74,0-45.47.54-50.5,0l50.5,13.93s-101-15.67-149.77-62.7c0,0,11.61,10.06,15,10.42,0,0-13.64-15.28-13.43-17.23,0,0,17,15.64,18.67,15.82,0,0-19.93-19.91-19.72-21.86,0,0,12.59,9.25,17.63,9.79,0,0-17.42-11.74-17.21-13.69,0,0,16.16,7.66,18,5.89,0,0-18-5.89-17.84-7.84Z"/><path class="cls-3" d="M462,215.69S520.28,176.81,574,178C574,178,498.55,161.94,462,215.69Z"/><path class="cls-3" d="M482.89,182.6s32.91-21.94,63.24-21.3C546.13,161.31,503.54,152.27,482.89,182.6Z"/><path class="cls-3" d="M413.5,203.5H399.57s-7,0-7,1.74-1.74,7-1.74,7-5.22,3.48-3.48,3.48,5.22-7,10.45-7,5.22-1.74,8.71-1.74S413.5,203.5,413.5,203.5Z"/><g class="cls-8"><rect class="cls-9" x="314.78" y="424.69" width="694.88" height="19.2" transform="translate(23.78 -34.25) rotate(3.02)"/><rect class="cls-9" x="314.95" y="456.04" width="694.88" height="12.68" transform="translate(25.26 -34.22) rotate(3.02)"/><rect class="cls-9" x="315.56" y="476.21" width="694.88" height="8.67" transform="translate(26.21 -34.23) rotate(3.02)"/><rect class="cls-9" x="316.45" y="492.32" width="694.88" height="5.12" transform="matrix(1, 0.05, -0.05, 1, 26.97, -34.26)"/><rect class="cls-9" x="317.58" y="503.28" width="694.88" height="3.19" transform="translate(27.5 -34.3) rotate(3.02)"/><rect class="cls-9" x="317.62" y="511.99" width="694.88" height="1.55" transform="translate(27.91 -34.29) rotate(3.02)"/></g><rect class="cls-6" x="244.59" y="578.62" width="10.01" height="8.58"/><rect class="cls-6" x="283.21" y="501.37" width="10.01" height="8.58"/><path class="cls-2" d="M257.32,395.93s75.42,5.78,79.55,5c0,0-20.55,2.49-24.55,2.06,0,0,23.93,3.76,25.93,4,0,0-38.59.55-40.46-.83,0,0,43.22,3.48,44.22,3.59,0,0-18.79,5-22.8,4.61,0,0,13.65,5,15.78,4.06,0,0-8.39,2.63-14.41,2l20,2.16s-21.42,1.22-23.43,1c0,0,18.66,5.55,21.67,5.87,0,0-27.31-.59-28.31-.7,0,0,32.61,7.22,33.5,7.22,1,0-27.14.32-30.15,0L344,444.29s-60.3-9.36-89.4-37.42c0,0,6.93,6,8.93,6.22,0,0-8.14-9.12-8-10.29,0,0,10.14,9.34,11.15,9.45,0,0-11.9-11.88-11.77-13,0,0,7.52,5.52,10.52,5.85,0,0-10.4-7-10.27-8.17,0,0,9.65,4.57,10.77,3.52,0,0-10.77-3.52-10.65-4.68Z"/></svg>